<svg width="153" height="41" viewBox="0 0 153 41" fill="none" xmlns="http://www.w3.org/2000/svg">
<mask id="mask0_253_3" style="mask-type:luminance" maskUnits="userSpaceOnUse" x="7" y="26" width="44" height="15">
<path d="M43.8997 26.1286L43.5823 29.8449H38.2138C36.9727 29.8734 35.7317 29.8449 34.4906 29.8449C34.4329 29.8449 34.404 29.8449 34.3463 29.8449C32.0661 29.8449 30.3921 32.7321 29.2953 34.4474H28.7469C27.6502 32.7607 25.9761 29.8449 23.696 29.8449C23.6383 29.8449 23.6094 29.8449 23.5517 29.8449C22.3106 29.8449 21.0695 29.8735 19.7996 29.8735H14.3157L13.9982 26.1286H7.47528C7.47528 28.5584 7.56189 30.9598 7.76392 32.5034C7.96596 34.0471 8.42775 35.305 9.14931 36.3055C9.87087 37.2775 10.9677 37.7635 12.4974 37.6777H25.6009L26.3513 40.6221H31.662L32.4413 37.7349H45.4294C46.9303 37.792 48.056 37.3346 48.7487 36.3341C49.4702 35.3336 49.932 34.0757 50.134 32.532C50.3361 30.9883 50.4226 28.587 50.4226 26.1571H43.8997V26.1286Z" fill="white"/>
</mask>
<g mask="url(#mask0_253_3)">
<path d="M50.4226 26.1286H7.47528V40.6221H50.4226V26.1286Z" fill="url(#paint0_linear_253_3)"/>
</g>
<mask id="mask1_253_3" style="mask-type:luminance" maskUnits="userSpaceOnUse" x="7" y="0" width="44" height="12">
<path d="M25.4566 0.0571905H12.4684C10.9676 1.65687e-05 9.84195 0.457402 9.12039 1.45795C8.39883 2.45849 7.93704 3.71632 7.735 5.26002C7.53296 6.80371 7.44638 9.20502 7.44638 11.6349H13.9693L14.2868 7.91861H19.5397C20.8097 7.91861 22.1085 7.91861 23.3785 7.91861H34.3174C35.5873 7.91861 36.8861 7.89001 38.1849 7.89001H43.5534L43.8708 11.6063H50.3937C50.3937 9.17644 50.3071 6.77512 50.1051 5.23142C49.9031 3.68773 49.4413 2.42991 48.7197 1.42936C47.9982 0.457407 46.8725 -0.0285765 45.4005 0.0285974H32.297L25.4566 1.52588e-05V0.0571905Z" fill="white"/>
</mask>
<g mask="url(#mask1_253_3)">
<path d="M50.4226 0H7.47525V11.6635H50.4226V0Z" fill="url(#paint1_linear_253_3)"/>
</g>
<mask id="mask2_253_3" style="mask-type:luminance" maskUnits="userSpaceOnUse" x="16" y="14" width="11" height="10">
<path d="M17.5195 15.3512C16.8845 16.0373 16.5381 17.238 16.5381 18.9246C16.5381 20.6112 16.8556 21.7833 17.5195 22.4408C18.1833 23.0983 19.4244 23.4414 21.3004 23.4414C23.1765 23.4414 24.3887 23.0983 25.0237 22.4408C25.6875 21.7833 26.005 20.6112 26.005 18.9246C26.005 17.238 25.6875 16.0373 25.0237 15.3512C24.3599 14.6652 23.1188 14.3221 21.3004 14.3221C19.4821 14.3221 18.1833 14.6652 17.5195 15.3512Z" fill="white"/>
</mask>
<g mask="url(#mask2_253_3)">
<path d="M26.005 14.3221H16.5381V23.4414H26.005V14.3221Z" fill="url(#paint2_linear_253_3)"/>
</g>
<mask id="mask3_253_3" style="mask-type:luminance" maskUnits="userSpaceOnUse" x="31" y="14" width="11" height="10">
<path d="M32.903 15.3512C32.2392 16.0373 31.9217 17.238 31.9217 18.9246C31.9217 20.6112 32.2392 21.7833 32.903 22.4408C33.538 23.0983 34.808 23.4414 36.684 23.4414C38.5601 23.4414 39.7723 23.0983 40.4073 22.4408C41.0711 21.7833 41.3886 20.6112 41.3886 18.9246C41.3886 17.238 41.0711 16.0373 40.4073 15.3512C39.7434 14.6652 38.5024 14.3221 36.684 14.3221C34.8657 14.3221 33.5669 14.6652 32.903 15.3512Z" fill="white"/>
</mask>
<g mask="url(#mask3_253_3)">
<path d="M41.3886 14.3221H31.9217V23.4414H41.3886V14.3221Z" fill="url(#paint3_linear_253_3)"/>
</g>
<mask id="mask4_253_3" style="mask-type:luminance" maskUnits="userSpaceOnUse" x="50" y="11" width="8" height="16">
<path d="M50.4227 26.1285C53.3378 26.1285 55.3004 25.6139 56.3395 24.5562C57.3785 23.4985 57.8981 21.6404 57.8981 18.9818C57.8981 16.3232 57.3785 14.4079 56.3395 13.3215C55.3004 12.2067 53.3378 11.6635 50.4227 11.6635V26.1571V26.1285Z" fill="white"/>
</mask>
<g mask="url(#mask4_253_3)">
<path d="M57.8981 11.6347H50.4227V26.1283H57.8981V11.6347Z" fill="url(#paint4_linear_253_3)"/>
</g>
<mask id="mask5_253_3" style="mask-type:luminance" maskUnits="userSpaceOnUse" x="0" y="11" width="8" height="16">
<path d="M1.55858 13.2072C0.519527 14.2649 0 16.1231 0 18.8103C0 21.4974 0.519527 23.3842 1.55858 24.4705C2.59763 25.5854 4.56026 26.1285 7.47537 26.1285V11.6349C4.56026 11.6349 2.59763 12.1495 1.55858 13.2072Z" fill="white"/>
</mask>
<g mask="url(#mask5_253_3)">
<path d="M7.50449 11.6349H0.0291138V26.1285H7.50449V11.6349Z" fill="url(#paint5_linear_253_3)"/>
</g>
<mask id="mask6_253_3" style="mask-type:luminance" maskUnits="userSpaceOnUse" x="69" y="0" width="15" height="15">
<path d="M75.5331 7.23254L76.399 4.2595L77.2937 7.23254L77.9287 9.17646H74.8982L75.5331 7.23254ZM74.4652 0.17157L69.2411 14.3221H73.1664L73.9745 11.8922H78.7946L79.6027 14.3221H83.5569L78.4194 0.17157H74.4652Z" fill="white"/>
</mask>
<g mask="url(#mask6_253_3)">
<path d="M83.5569 0.17157H69.2411V14.3221H83.5569V0.17157Z" fill="url(#paint6_linear_253_3)"/>
</g>
<mask id="mask7_253_3" style="mask-type:luminance" maskUnits="userSpaceOnUse" x="85" y="0" width="4" height="15">
<path d="M88.9539 0.17157H85.2018V14.3221H88.9539V0.17157Z" fill="white"/>
</mask>
<g mask="url(#mask7_253_3)">
<path d="M88.9539 0.17157H85.2018V14.3221H88.9539V0.17157Z" fill="url(#paint7_linear_253_3)"/>
</g>
<path d="M97.7282 12.8927C96.4294 11.5206 95.7944 9.71957 95.7944 7.4612C95.7944 5.20283 96.4294 3.37327 97.7282 2.02968C99.027 0.686095 100.672 0 102.693 0C104.511 0 105.983 0.485978 107.137 1.42935C108.263 2.40131 108.927 3.71631 109.129 5.37435H105.492C105.377 4.63109 105.088 4.05936 104.626 3.65914C104.165 3.25892 103.558 3.0588 102.837 3.0588C101.798 3.0588 101.019 3.43044 100.441 4.20229C99.864 4.97414 99.6043 6.03186 99.6043 7.43262C99.6043 8.83338 99.8929 9.97686 100.441 10.7487C101.019 11.5206 101.798 11.9208 102.837 11.9208C104.395 11.9208 105.29 11.0917 105.521 9.4337H109.158C109.013 11.1775 108.378 12.5211 107.224 13.4931C106.041 14.465 104.54 14.951 102.693 14.951C100.672 14.951 99.027 14.2649 97.7282 12.8927Z" fill="black"/>
<path d="M117.557 14.951C115.479 14.951 113.776 14.2649 112.477 12.8927C111.178 11.5206 110.515 9.69099 110.515 7.43262C110.515 5.17425 111.178 3.37326 112.477 2.00109C113.776 0.657502 115.479 0 117.557 0C119.635 0 121.338 0.657502 122.666 2.00109C123.964 3.37326 124.628 5.17425 124.628 7.43262C124.628 9.69099 123.964 11.5206 122.637 12.8927C121.309 14.2649 119.606 14.951 117.528 14.951M117.528 11.9208C118.567 11.9208 119.375 11.5205 119.981 10.7201C120.559 9.91968 120.876 8.83338 120.876 7.43262C120.876 6.03186 120.588 5.00272 119.981 4.20229C119.375 3.43044 118.567 3.03022 117.557 3.03022C116.547 3.03022 115.71 3.43044 115.133 4.20229C114.555 4.97414 114.267 6.06044 114.267 7.43262C114.267 8.80479 114.555 9.91968 115.161 10.7201C115.739 11.5205 116.547 11.9208 117.557 11.9208" fill="black"/>
<path d="M132.71 0.343033C134.932 0.343033 136.635 0.943357 137.79 2.1726C138.944 3.40184 139.55 5.14564 139.55 7.40401C139.55 9.66238 139.002 11.3776 137.876 12.6354C136.779 13.8647 135.134 14.4936 132.998 14.4936H126.706V0.343033H132.739H132.71ZM132.363 11.3776C134.644 11.3776 135.798 10.0626 135.798 7.4326C135.798 6.06042 135.509 5.05988 134.932 4.40238C134.355 3.74488 133.431 3.43042 132.161 3.43042H130.458V11.4062H132.363V11.3776Z" fill="black"/>
<path d="M145.265 11.349H153V14.4936H141.513V0.343033H152.798V3.43042H145.265V5.74597H151.903V8.77618H145.265V11.349Z" fill="black"/>
<path d="M71.0306 36.5913C69.9338 35.7337 69.3565 34.4759 69.27 32.875H72.9932C73.0798 34.2186 73.9745 34.9047 75.6485 34.9047C77.1205 34.9047 77.8421 34.4473 77.8421 33.5039C77.8421 33.1323 77.7267 32.8464 77.4669 32.6463C77.2071 32.4462 76.7742 32.2747 76.1392 32.1032L73.3396 31.4457C70.8863 30.8739 69.6451 29.5303 69.6451 27.4149C69.6451 26.1285 70.107 25.0422 71.0594 24.2132C72.0119 23.3841 73.4261 22.9553 75.3022 22.9553C77.1783 22.9553 78.5059 23.3556 79.545 24.1274C80.5552 24.9278 81.1035 26.0427 81.1901 27.4721H77.5535C77.3803 26.3572 76.6299 25.814 75.2734 25.814C74.6961 25.814 74.2054 25.9284 73.8879 26.1571C73.5704 26.3858 73.3684 26.7002 73.3684 27.0719C73.3684 27.6722 73.8302 28.0724 74.725 28.3011L77.669 28.9872C80.3243 29.6161 81.6519 31.0169 81.6519 33.2466C81.6519 34.7046 81.1036 35.8481 80.0357 36.6771C78.9389 37.5061 77.4669 37.9063 75.5908 37.9063C73.7148 37.9063 72.185 37.4775 71.0883 36.5913" fill="black"/>
<path d="M85.6061 36.5056C84.5381 35.5908 84.0186 34.2758 84.0186 32.5606V23.2698H87.7707V32.5891C87.7707 34.0757 88.5789 34.8475 90.1663 34.8475C91.7537 34.8475 92.533 34.1043 92.533 32.5891V23.2698H96.2852V32.5606C96.2852 34.2758 95.7656 35.5908 94.6977 36.5056C93.6298 37.4203 92.129 37.8777 90.1374 37.8777C88.1459 37.8777 86.6451 37.4203 85.6061 36.5056Z" fill="black"/>
<path d="M108.985 23.2698H114.093V37.4203H110.659V31.7887L110.947 26.5859L110.053 30.5023L108.234 37.4203H105.117L103.27 30.4165L102.404 26.6145L102.664 31.7887V37.4203H99.1714V23.2698H104.251L106.041 29.9591L106.618 32.8464L107.253 29.9591L108.985 23.2698Z" fill="black"/>
<path d="M126.793 23.2698H131.931V37.4203H128.496V31.7887L128.756 26.5859L127.89 30.5023L126.071 37.4203H122.925L121.078 30.4165L120.212 26.6145L120.501 31.7887V37.4203H117.009V23.2698H122.088L123.849 29.9591L124.455 32.8464L125.061 29.9591L126.793 23.2698Z" fill="black"/>
<path d="M138.569 23.2698H134.817V37.4203H138.569V23.2698Z" fill="black"/>
<path d="M152.798 23.2698V26.5001H148.613V37.4203H144.861V26.5001H140.647V23.2698H152.798Z" fill="black"/>
<defs>
<linearGradient id="paint0_linear_253_3" x1="26.9378" y1="-2.75342" x2="26.9378" y2="36.5822" gradientUnits="userSpaceOnUse">
<stop stop-color="#6680BF"/>
<stop offset="1" stop-color="#5CC2E1"/>
</linearGradient>
<linearGradient id="paint1_linear_253_3" x1="-7769.87" y1="-2.7535" x2="-7769.87" y2="36.5822" gradientUnits="userSpaceOnUse">
<stop stop-color="#6680BF"/>
<stop offset="1" stop-color="#5CC2E1"/>
</linearGradient>
<linearGradient id="paint2_linear_253_3" x1="19.2316" y1="-2.75347" x2="19.2316" y2="36.5822" gradientUnits="userSpaceOnUse">
<stop stop-color="#6680BF"/>
<stop offset="1" stop-color="#5CC2E1"/>
</linearGradient>
<linearGradient id="paint3_linear_253_3" x1="34.6152" y1="-2.75347" x2="34.6152" y2="36.5822" gradientUnits="userSpaceOnUse">
<stop stop-color="#6680BF"/>
<stop offset="1" stop-color="#5CC2E1"/>
</linearGradient>
<linearGradient id="paint4_linear_253_3" x1="52.1349" y1="-2.75367" x2="52.1349" y2="36.582" gradientUnits="userSpaceOnUse">
<stop stop-color="#6680BF"/>
<stop offset="1" stop-color="#5CC2E1"/>
</linearGradient>
<linearGradient id="paint5_linear_253_3" x1="1.71237" y1="-2.75346" x2="1.71237" y2="36.5822" gradientUnits="userSpaceOnUse">
<stop stop-color="#6680BF"/>
<stop offset="1" stop-color="#5CC2E1"/>
</linearGradient>
<linearGradient id="paint6_linear_253_3" x1="75.3672" y1="-1.52221" x2="75.3672" y2="12.0566" gradientUnits="userSpaceOnUse">
<stop stop-color="#6680BF"/>
<stop offset="1" stop-color="#5CC2E1"/>
</linearGradient>
<linearGradient id="paint7_linear_253_3" x1="86.046" y1="-1.52221" x2="86.046" y2="12.0566" gradientUnits="userSpaceOnUse">
<stop stop-color="#6680BF"/>
<stop offset="1" stop-color="#5CC2E1"/>
</linearGradient>
</defs>
</svg>
